<svg preserveAspectRatio="none" overflow="visible" style="display: block;" width="24" height="24" viewBox="0 0 24 24" fill="none" xmlns="http://www.w3.org/2000/svg">
<g id="Icon / Policy Route">
<path id="Vector" d="M12 2.4C14.9 2.4 17.3 4.7 17.3 7.6C17.3 11.3 12 17 12 17C12 17 6.7 11.3 6.7 7.6C6.7 4.7 9.1 2.4 12 2.4Z" stroke="#1D1D1D" stroke-width="1.35" stroke-linecap="round" stroke-linejoin="round"/>
<path id="Vector_2" d="M9.9 7.5L11.4 9L14.2 6.1" stroke="#1D1D1D" stroke-width="1.35" stroke-linecap="round" stroke-linejoin="round"/>
<path id="Vector_3" d="M7.6 17.2C5.4 17.7 4 18.6 4 19.7C4 21.2 7.6 22.3 12 22.3C16.4 22.3 20 21.2 20 19.7C20 18.6 18.6 17.7 16.4 17.2" stroke="#1D1D1D" stroke-width="1.35" stroke-linecap="round" stroke-linejoin="round"/>
</g>
</svg>
