<svg preserveAspectRatio="none" overflow="visible" style="display: block;" width="30" height="30" viewBox="0 0 30 30" fill="none" xmlns="http://www.w3.org/2000/svg">
<g id="Seat / Seater">
<g id="Arms">
<path d="M0.9 15.6C0.9 11.734 4.03401 8.6 7.9 8.6H22.1C25.966 8.6 29.1 11.734 29.1 15.6V22.1C29.1 25.966 25.966 29.1 22.1 29.1H7.9C4.034 29.1 0.9 25.966 0.9 22.1V15.6Z" fill="#E6E6E6"/>
<path d="M0.9 15.6C0.9 11.734 4.03401 8.6 7.9 8.6H22.1C25.966 8.6 29.1 11.734 29.1 15.6V22.1C29.1 25.966 25.966 29.1 22.1 29.1H7.9C4.034 29.1 0.9 25.966 0.9 22.1V15.6Z" stroke="#C5C9E5" stroke-width="1.6"/>
</g>
<g id="Back">
<path d="M4.6 6.4C4.6 3.36243 7.06243 0.9 10.1 0.9H19.9C22.9376 0.9 25.4 3.36243 25.4 6.4V15.8C25.4 18.8376 22.9376 21.3 19.9 21.3H10.1C7.06244 21.3 4.6 18.8376 4.6 15.8V6.4Z" fill="#E6E6E6"/>
<path d="M4.6 6.4C4.6 3.36243 7.06243 0.9 10.1 0.9H19.9C22.9376 0.9 25.4 3.36243 25.4 6.4V15.8C25.4 18.8376 22.9376 21.3 19.9 21.3H10.1C7.06244 21.3 4.6 18.8376 4.6 15.8V6.4Z" stroke="#C5C9E5" stroke-width="1.6"/>
</g>
<circle id="Head" cx="15" cy="9.96" r="1.14" fill="#C5C9E5"/>
<g id="Body">
<path d="M13.195 12.24C13.195 11.8727 13.4927 11.575 13.86 11.575H16.14C16.5073 11.575 16.805 11.8727 16.805 12.24V15.85C16.805 16.2173 16.5073 16.515 16.14 16.515H13.86C13.4927 16.515 13.195 16.2173 13.195 15.85V12.24Z" fill="#C5C9E5"/>
</g>
</g>
</svg>
